<svg width="16" height="16" viewBox="0 0 16 16" fill="none" xmlns="http://www.w3.org/2000/svg">
<path d="M7.36671 9.96683L6.13337 11.2002C5.87337 11.4602 5.46004 11.4602 5.19337 11.2068C5.12004 11.1335 5.04671 11.0668 4.97337 10.9935C4.28671 10.3002 3.66671 9.5735 3.11337 8.8135C2.56671 8.0535 2.12671 7.2935 1.80671 6.54016C1.49337 5.78016 1.33337 5.0535 1.33337 4.36016C1.33337 3.90683 1.41337 3.4735 1.57337 3.0735C1.73337 2.66683 1.98671 2.2935 2.34004 1.96016C2.76671 1.54016 3.23337 1.3335 3.72671 1.3335C3.91337 1.3335 4.10004 1.3735 4.26671 1.4535C4.44004 1.5335 4.59337 1.6535 4.71337 1.82683L6.26004 4.00683C6.38004 4.1735 6.46671 4.32683 6.52671 4.4735C6.58671 4.6135 6.62004 4.7535 6.62004 4.88016C6.62004 5.04016 6.57337 5.20016 6.48004 5.3535C6.39337 5.50683 6.26671 5.66683 6.10671 5.82683L5.60004 6.3535C5.52671 6.42683 5.49337 6.5135 5.49337 6.62016C5.49337 6.6735 5.50004 6.72016 5.51337 6.7735C5.53337 6.82683 5.55337 6.86683 5.56671 6.90683C5.68671 7.12683 5.89337 7.4135 6.18671 7.76016C6.48671 8.10683 6.80671 8.46016 7.15337 8.8135C7.22004 8.88016 7.29337 8.94683 7.36004 9.0135C7.62671 9.2735 7.63337 9.70016 7.36671 9.96683Z" fill="#565656"/>
<path d="M14.6467 12.2199C14.6467 12.4065 14.6134 12.5999 14.5467 12.7865C14.5267 12.8399 14.5067 12.8932 14.48 12.9465C14.3667 13.1865 14.22 13.4132 14.0267 13.6265C13.7 13.9865 13.34 14.2465 12.9334 14.4132C12.9267 14.4132 12.92 14.4199 12.9134 14.4199C12.52 14.5799 12.0934 14.6665 11.6334 14.6665C10.9534 14.6665 10.2267 14.5065 9.46002 14.1799C8.69336 13.8532 7.92669 13.4132 7.16669 12.8599C6.90669 12.6665 6.64669 12.4732 6.40002 12.2665L8.58002 10.0865C8.76669 10.2265 8.93336 10.3332 9.07336 10.4065C9.10669 10.4199 9.14669 10.4399 9.19336 10.4599C9.24669 10.4799 9.30002 10.4865 9.36002 10.4865C9.47336 10.4865 9.56002 10.4465 9.63336 10.3732L10.14 9.8732C10.3067 9.70653 10.4667 9.57986 10.62 9.49986C10.7734 9.40653 10.9267 9.35986 11.0934 9.35986C11.22 9.35986 11.3534 9.38653 11.5 9.44653C11.6467 9.50653 11.8 9.5932 11.9667 9.70653L14.1734 11.2732C14.3467 11.3932 14.4667 11.5332 14.54 11.6999C14.6067 11.8665 14.6467 12.0332 14.6467 12.2199Z" fill="#565656"/>
</svg>
