<svg width="16" height="16" viewBox="0 0 16 16" fill="none" xmlns="http://www.w3.org/2000/svg">
<path d="M11.3334 2.3335H4.66671C2.66671 2.3335 1.33337 3.3335 1.33337 5.66683V10.3335C1.33337 12.6668 2.66671 13.6668 4.66671 13.6668H11.3334C13.3334 13.6668 14.6667 12.6668 14.6667 10.3335V5.66683C14.6667 3.3335 13.3334 2.3335 11.3334 2.3335ZM11.6467 6.3935L9.56004 8.06016C9.12004 8.4135 8.56004 8.58683 8.00004 8.58683C7.44004 8.58683 6.87337 8.4135 6.44004 8.06016L4.35337 6.3935C4.14004 6.22016 4.10671 5.90016 4.27337 5.68683C4.44671 5.4735 4.76004 5.4335 4.97337 5.60683L7.06004 7.2735C7.56671 7.68016 8.42671 7.68016 8.93337 7.2735L11.02 5.60683C11.2334 5.4335 11.5534 5.46683 11.72 5.68683C11.8934 5.90016 11.86 6.22016 11.6467 6.3935Z" fill="#565656"/>
</svg>
