<svg width="16" height="16" viewBox="0 0 16 16" fill="none" xmlns="http://www.w3.org/2000/svg">
<path d="M13.7466 5.63317C13.0466 2.55317 10.3599 1.1665 7.99994 1.1665C7.99994 1.1665 7.99994 1.1665 7.99327 1.1665C5.63994 1.1665 2.94661 2.5465 2.24661 5.6265C1.46661 9.0665 3.57328 11.9798 5.47994 13.8132C6.18661 14.4932 7.09328 14.8332 7.99994 14.8332C8.90661 14.8332 9.81328 14.4932 10.5133 13.8132C12.4199 11.9798 14.5266 9.07317 13.7466 5.63317ZM7.99994 8.97317C6.83994 8.97317 5.89994 8.03317 5.89994 6.87317C5.89994 5.71317 6.83994 4.77317 7.99994 4.77317C9.15994 4.77317 10.0999 5.71317 10.0999 6.87317C10.0999 8.03317 9.15994 8.97317 7.99994 8.97317Z" fill="#565656"/>
</svg>
